{
  "accessors": [
    {
      "bufferView": 0,
      "componentType": 5125,
      "count": 45312,
      "type": "SCALAR"
    },
    {
      "bufferView": 1,
      "componentType": 5126,
      "count": 8728,
      "max": [
        0.1065599362405951,
        0.08696978267889754,
        0.0814884582228818
      ],
      "min": [
        -0.10655993624059507,
        -0.0869697826788976,
        -0.0814884582228818
      ],
      "type": "VEC3"
    },
    {
      "bufferView": 2,
      "componentType": 5126,
      "count": 8728,
      "max": [
        0.9999999644991119,
        0.9999997679117449,
        0.9999805970468476
      ],
      "min": [
        -0.9999998617010203,
        -0.9758972558465445,
        -0.9999805970468476
      ],
      "type": "VEC3"
    },
    {
      "bufferView": 3,
      "componentType": 5126,
      "count": 8728,
      "max": [
        1.0,
        0.9955727867310208
      ],
      "min": [
        0.0,
        0.0
      ],
      "type": "VEC2"
    }
  ],
  "asset": {
    "generator": "Adobe Illustrator",
    "version": "2.0"
  },
  "bufferViews": [
    {
      "buffer": 0,
      "byteLength": 181248,
      "target": 34963
    },
    {
      "buffer": 0,
      "byteLength": 104736,
      "byteOffset": 181248,
      "target": 34962
    },
    {
      "buffer": 0,
      "byteLength": 104736,
      "byteOffset": 285984,
      "target": 34962
    },
    {
      "buffer": 0,
      "byteLength": 69824,
      "byteOffset": 390720,
      "target": 34962
    }
  ],
  "buffers": [
    {
      "byteLength": 460544,
      "uri": "data:application/octet-stream;base64,"
    }
  ],
  "materials": [
    {
      "doubleSided": true,
      "pbrMetallicRoughness": {
        "baseColorFactor": [
          0.92578125,
          0.1093750149011612,
          0.1406250149011612,
          1.0
        ],
        "metallicFactor": 0.0,
        "roughnessFactor": 0.4000000059604645
      }
    }
  ],
  "meshes": [
    {
      "primitives": [
        {
          "attributes": {
            "NORMAL": 2,
            "POSITION": 1,
            "TEXCOORD_0": 3
          },
          "indices": 0,
          "material": 0,
          "mode": 4
        }
      ]
    }
  ],
  "nodes": [
    {
      "mesh": 0
    }
  ],
  "scenes": [
    {
      "nodes": [
        0
      ]
    }
  ]
}
